<?xml version="1.0" encoding="utf-8"?>
<!-- Svg Vector Icons : http://www.onlinewebfonts.com/icon -->
<!DOCTYPE svg PUBLIC "-//W3C//DTD SVG 1.1//EN" "http://www.w3.org/Graphics/SVG/1.1/DTD/svg11.dtd">
<svg version="1.1" xmlns="http://www.w3.org/2000/svg" xmlns:xlink="http://www.w3.org/1999/xlink" x="0px" y="0px" viewBox="0 0 1000 1000" enable-background="new 0 0 1000 1000" xml:space="preserve">
<metadata> Svg Vector Icons : http://www.onlinewebfonts.com/icon </metadata>
<g><path d="M887.9,867.5H112.1C54.9,867.5,10,822.6,10,765.4V234.6c0-57.2,44.9-102.1,102.1-102.1h775.9c57.2,0,102.1,44.9,102.1,102.1v530.8C990,822.6,945.1,867.5,887.9,867.5z M951.2,177.4c-8.2-8.2-20.4-10.2-30.6-2L500,532.7L79.4,175.4c-8.2-8.2-22.5-6.1-30.6,2c-8.2,8.2-6.1,22.5,2,30.6l430.8,365.4c4.1,4.1,10.2,8.2,16.3,8.2s12.2-4.1,16.4-8.2l430.8-365.4C957.3,199.9,957.3,185.6,951.2,177.4z"/></g>
</svg>